<svg xmlns="http://www.w3.org/2000/svg" viewBox="0 0 1520 548">
<path fill="#dcbda0" fill-rule="evenodd" d="M 49.557 140.223 C 48.701 141.445, 48 142.985, 48 143.646 C 48 144.306, 46.944 146.119, 45.652 147.673 C 44.361 149.228, 42.673 151.688, 41.902 153.141 C 41.131 154.593, 38.497 159.093, 36.049 163.141 C 25.544 180.510, 24.550 185.720, 30.750 190.903 C 54.473 210.733, 62.812 219.580, 69.017 231.500 C 70.162 233.700, 71.976 237.075, 73.048 239 C 75.315 243.071, 75.546 246.871, 73.683 249.418 C 72.479 251.065, 69.849 251.254, 42.933 251.629 C 10.104 252.085, 7.970 252.271, 5.619 254.869 C 1.665 259.237, 1.223 309.929, 5.066 318.274 C 6.749 321.931, 5.925 321.838, 40.816 322.293 C 70.066 322.674, 71.207 322.762, 73.245 324.800 C 75.112 326.667, 75.242 327.411, 74.365 331.206 C 71.708 342.699, 50.067 369.135, 34.665 379.702 C 27.500 384.618, 27.500 384.618, 27.543 391.559 C 27.573 396.496, 28.150 399.537, 29.543 402.092 C 30.619 404.067, 32.960 408.529, 34.744 412.006 C 36.528 415.484, 38.597 419.042, 39.342 419.914 C 40.087 420.786, 40.954 422.233, 41.270 423.129 C 41.586 424.025, 44.017 427.503, 46.672 430.859 C 51.192 436.570, 51.767 436.960, 55.679 436.980 C 64.580 437.023, 89.737 416.800, 107.279 395.500 C 110.780 391.250, 119 379.129, 119 378.217 C 119 377.798, 120.575 375.063, 122.500 372.140 C 124.425 369.217, 126 366.611, 126 366.350 C 126 366.088, 127.081 363.540, 128.402 360.687 C 142.711 329.792, 148.331 290.734, 142.818 260.500 C 140.537 247.989, 130.776 217.373, 127.642 212.899 C 126.739 211.610, 126 209.924, 126 209.154 C 126 208.383, 124.188 204.995, 121.973 201.626 C 119.759 198.257, 117.513 194.825, 116.983 194 C 105.035 175.401, 92.024 161.470, 73.695 147.653 C 61.569 138.512, 60.630 138, 56.001 138 C 52.084 138, 50.804 138.441, 49.557 140.223"/>
<path fill="#fdcb29" fill-rule="evenodd" d="M 237.500 393.006 C 223.554 394.864, 220.662 395.518, 206 400.125 C 196.829 403.007, 194.973 403.758, 183 409.428 C 177.515 412.025, 164.932 419.788, 153.439 427.664 C 137.856 438.343, 107 477.121, 107 486.026 C 107 488.820, 110.872 494.825, 113.138 495.544 C 114.235 495.892, 116.564 497.408, 118.316 498.913 C 123.605 503.458, 144.132 514.161, 148.633 514.720 C 153.569 515.334, 154.329 514.657, 160.396 504.249 C 169.004 489.483, 184.447 474.249, 201.500 463.702 C 214.058 455.935, 220.218 454.374, 223.595 458.103 C 225.377 460.071, 225.532 462.630, 226 497.853 C 226.275 518.559, 226.844 536.030, 227.264 536.677 C 229.266 539.761, 235.495 540.463, 260.500 540.423 C 287.402 540.379, 290.320 539.919, 292.018 535.453 C 292.594 533.939, 293 518.223, 293 497.482 C 293 456.509, 292.914 457, 300.113 457 C 306.950 457, 310.755 458.966, 329.529 472.198 C 338.591 478.585, 353.596 495.637, 358.393 505 C 361.316 510.705, 365.639 516, 367.373 516 C 367.923 516, 372.832 513.413, 378.282 510.250 C 383.732 507.087, 389.611 503.761, 391.346 502.858 C 393.081 501.955, 395.357 500.268, 396.405 499.108 C 397.453 497.949, 398.845 497, 399.500 497 C 400.154 497, 403.460 495.210, 406.845 493.022 C 414.913 487.807, 415.182 484.825, 408.498 474.657 C 406.024 470.893, 404 467.433, 404 466.968 C 404 465.438, 384.640 443.552, 378 437.576 C 374.425 434.358, 370.997 431.107, 370.382 430.352 C 368.733 428.326, 363.267 424.544, 356.750 420.920 C 353.587 419.161, 351 417.382, 351 416.968 C 351 414.417, 323.535 402.540, 307.500 398.156 C 293.203 394.248, 293.141 394.237, 275 392.504 C 256.515 390.738, 254.289 390.768, 237.500 393.006"/>
<path fill="#278c6d" fill-rule="evenodd" d="M 247 31.020 C 228.915 32.569, 227.196 32.935, 225.018 35.705 C 223.078 38.170, 223 39.678, 223 74.588 C 223 113.288, 222.699 116, 218.399 116 C 217.144 116, 215.862 115.585, 215.549 115.079 C 215.236 114.572, 212.896 113.362, 210.350 112.389 C 202.281 109.308, 185.102 96.764, 179.105 89.576 C 178.222 88.517, 176.329 86.492, 174.899 85.076 C 170.788 81.006, 164 71.948, 164 70.533 C 164 69.824, 163.290 68.656, 162.422 67.935 C 161.554 67.215, 159.747 64.460, 158.405 61.813 C 154.738 54.577, 152.080 54.944, 132.546 65.387 C 129.821 66.843, 126.671 68.856, 125.546 69.860 C 123.639 71.561, 118.339 74.735, 110 79.169 C 108.075 80.193, 105.723 82.036, 104.772 83.265 C 102.876 85.717, 102.404 91.514, 104.019 92.512 C 104.579 92.858, 106.177 95.247, 107.569 97.821 C 110.842 103.870, 114.621 110.231, 115.697 111.500 C 116.163 112.050, 119.737 116.325, 123.638 121 C 127.540 125.675, 133.605 132.152, 137.116 135.394 C 156.478 153.271, 155.382 152.467, 176.240 164.111 C 180.783 166.647, 185.625 169.056, 187 169.465 C 188.375 169.873, 191.300 171.234, 193.500 172.489 C 195.700 173.744, 200.200 175.324, 203.500 176.001 C 206.800 176.678, 211.158 178.073, 213.184 179.103 C 219.688 182.405, 241.503 184.317, 265 183.642 C 289.266 182.946, 297.423 181.920, 305.500 178.550 C 308.800 177.174, 312.568 176.037, 313.874 176.024 C 316.143 176.001, 329.172 170.751, 335.500 167.310 C 337.150 166.412, 340.750 164.470, 343.500 162.994 C 355.821 156.378, 358.155 154.737, 371.814 143.100 C 382.359 134.116, 392.166 124.061, 396.296 118 C 397.982 115.525, 400.293 112.551, 401.431 111.391 C 402.569 110.230, 404.514 107.530, 405.753 105.391 C 406.993 103.251, 409.580 98.858, 411.503 95.629 C 414.832 90.040, 415.917 84.818, 414.235 82.477 C 413.384 81.294, 402.671 73.438, 397.902 70.500 C 396.116 69.400, 392.370 67.046, 389.577 65.269 C 386.785 63.492, 382.925 61.353, 381 60.517 C 379.075 59.680, 375.836 58.096, 373.802 56.998 C 371.768 55.899, 369.293 55.014, 368.302 55.032 C 365.541 55.080, 361.157 59.467, 359.118 64.222 C 355.239 73.270, 334.623 98, 330.960 98 C 330.499 98, 328.080 99.687, 325.585 101.750 C 317.781 108.200, 315.319 109.929, 312.365 111.033 C 310.789 111.622, 307.516 113.055, 305.091 114.218 C 301.107 116.129, 300.433 116.192, 298.091 114.878 C 295.500 113.425, 295.500 113.425, 295 75.462 C 294.499 37.404, 294.231 34.492, 291.158 33.590 C 282.681 31.104, 260.855 29.834, 247 31.020"/>
<path fill="#eb5720" fill-rule="evenodd" d="M 526.500 119.096 C 509.448 120.947, 478.339 132.076, 466.500 140.562 C 464.850 141.745, 462.450 143.044, 461.167 143.450 C 457.157 144.718, 437.455 162.127, 426.859 173.766 C 412.720 189.295, 394.247 223.740, 391.407 239.867 C 391.055 241.865, 389.592 248, 388.155 253.500 C 385.707 262.866, 385.540 264.957, 385.521 286.500 C 385.500 309.500, 385.500 309.500, 389.250 325 C 399.009 365.330, 421.156 400.075, 451.500 422.656 C 455.350 425.521, 459.625 428.731, 461 429.789 C 468.422 435.503, 489.645 445.363, 505.513 450.470 C 512.519 452.725, 538.372 456, 549.165 456 C 561.155 456, 587.034 452.083, 595.781 448.943 C 598.926 447.814, 603.525 446.193, 606 445.341 C 608.475 444.489, 611.197 443.175, 612.050 442.422 C 612.902 441.669, 615.580 440.354, 618 439.500 C 620.420 438.646, 623.098 437.316, 623.950 436.545 C 624.803 435.774, 627.750 434.180, 630.500 433.004 C 639.675 429.080, 640 428.443, 640 414.410 L 640 402.168 627.525 389.584 C 612.744 374.674, 612.862 374.709, 600.667 381.567 C 586.702 389.420, 574.848 393.690, 561.885 395.535 C 535.286 399.322, 508.668 392.234, 487.230 375.655 C 473.601 365.116, 458.065 345.315, 453.879 333.149 C 450.178 322.393, 451.341 322, 486.887 322 C 518.151 322, 520.056 321.726, 522.570 316.864 C 524.557 313.021, 525.628 279.483, 524.144 267.581 C 522.359 253.275, 524.755 254.190, 488.090 253.814 C 452.329 253.448, 451.232 253.202, 452.413 245.821 C 453.520 238.899, 464.357 220.267, 471.072 213.741 C 472.633 212.224, 474.268 210.408, 474.705 209.706 C 476.053 207.540, 491.551 194.650, 496.150 191.869 C 503.862 187.206, 517.113 181.942, 527.436 179.441 C 551.693 173.564, 574.827 177.968, 604.256 194.065 C 608.528 196.402, 610.702 197.041, 612.691 196.541 C 615.639 195.801, 644.868 167.561, 648.109 162.322 C 649.425 160.194, 649.861 158.295, 649.429 156.575 C 648.284 152.013, 635.216 142.523, 620 135.204 C 594.112 122.752, 579.843 119.158, 553.879 118.550 C 543.771 118.313, 531.450 118.559, 526.500 119.096"/>
<text x="635" y="380" textLength="885" lengthAdjust="spacing" font-family="'Century Gothic','Segoe UI',Arial,sans-serif" font-weight="700" font-size="285" fill="#101010">ruditio</text>
<text x="650" y="430" textLength="862" lengthAdjust="spacing" font-family="'Century Gothic','Segoe UI',Arial,sans-serif" font-weight="700" font-size="34" fill="#4a4947">EMPOWER • DEVELOP • TRANSFORM</text>
</svg>
